<mxfile host="65bd71144e">
    <diagram id="A1F0wB1QJIUUF9iCLyjX" name="Page-1">
        <mxGraphModel dx="2046" dy="571" grid="1" gridSize="10" guides="1" tooltips="1" connect="1" arrows="1" fold="1" page="1" pageScale="1" pageWidth="850" pageHeight="1100" background="none" math="0" shadow="0">
            <root>
                <mxCell id="0"/>
                <mxCell id="1" parent="0"/>
                <mxCell id="2" value="User" style="whiteSpace=wrap;html=1;align=center;" parent="1" vertex="1">
                    <mxGeometry x="200" y="180" width="160" height="80" as="geometry"/>
                </mxCell>
                <mxCell id="3" value="Name" style="ellipse;whiteSpace=wrap;html=1;align=center;" parent="1" vertex="1">
                    <mxGeometry x="325" y="80" width="100" height="40" as="geometry"/>
                </mxCell>
                <mxCell id="4" value="ID" style="ellipse;whiteSpace=wrap;html=1;align=center;fontStyle=4;" parent="1" vertex="1">
                    <mxGeometry x="-10" y="270" width="100" height="40" as="geometry"/>
                </mxCell>
                <mxCell id="8" value="" style="endArrow=none;html=1;rounded=0;entryX=0;entryY=1;entryDx=0;entryDy=0;fillColor=#eeeeee;strokeColor=#FFFFFF;strokeWidth=2;" parent="1" source="2" target="3" edge="1">
                    <mxGeometry relative="1" as="geometry">
                        <mxPoint x="230" y="120" as="sourcePoint"/>
                        <mxPoint x="413.622839226025" y="88.89672396997116" as="targetPoint"/>
                    </mxGeometry>
                </mxCell>
                <mxCell id="9" value="First" style="ellipse;whiteSpace=wrap;html=1;align=center;" parent="1" vertex="1">
                    <mxGeometry x="290" y="15" width="100" height="40" as="geometry"/>
                </mxCell>
                <mxCell id="10" value="Last" style="ellipse;whiteSpace=wrap;html=1;align=center;" parent="1" vertex="1">
                    <mxGeometry x="410" y="20" width="100" height="30" as="geometry"/>
                </mxCell>
                <mxCell id="11" value="" style="endArrow=none;html=1;rounded=0;exitX=0.5;exitY=0;exitDx=0;exitDy=0;entryX=0.5;entryY=1;entryDx=0;entryDy=0;strokeColor=#FFFFFF;strokeWidth=2;" parent="1" source="3" target="9" edge="1">
                    <mxGeometry relative="1" as="geometry">
                        <mxPoint x="520" y="140" as="sourcePoint"/>
                        <mxPoint x="428.3198708784287" y="49.72117541553462" as="targetPoint"/>
                    </mxGeometry>
                </mxCell>
                <mxCell id="12" value="" style="endArrow=none;html=1;rounded=0;exitX=1;exitY=0;exitDx=0;exitDy=0;entryX=0;entryY=1;entryDx=0;entryDy=0;strokeColor=#FFFFFF;strokeWidth=2;" parent="1" source="3" target="10" edge="1">
                    <mxGeometry relative="1" as="geometry">
                        <mxPoint x="520" y="200" as="sourcePoint"/>
                        <mxPoint x="680" y="200" as="targetPoint"/>
                    </mxGeometry>
                </mxCell>
                <mxCell id="13" value="Email" style="ellipse;whiteSpace=wrap;html=1;align=center;" parent="1" vertex="1">
                    <mxGeometry x="170" y="40" width="100" height="40" as="geometry"/>
                </mxCell>
                <mxCell id="15" value="" style="endArrow=none;html=1;rounded=0;exitX=0.408;exitY=1;exitDx=0;exitDy=0;exitPerimeter=0;entryX=0.5;entryY=0;entryDx=0;entryDy=0;fillColor=#f9f7ed;strokeColor=#FFFFFF;strokeWidth=2;" parent="1" source="13" target="2" edge="1">
                    <mxGeometry relative="1" as="geometry">
                        <mxPoint x="260" y="100" as="sourcePoint"/>
                        <mxPoint x="420" y="100" as="targetPoint"/>
                    </mxGeometry>
                </mxCell>
                <mxCell id="16" value="Password" style="ellipse;whiteSpace=wrap;html=1;align=center;" parent="1" vertex="1">
                    <mxGeometry x="50" y="85" width="100" height="40" as="geometry"/>
                </mxCell>
                <mxCell id="17" value="" style="endArrow=none;html=1;rounded=0;exitX=0.5;exitY=1;exitDx=0;exitDy=0;entryX=0.25;entryY=0;entryDx=0;entryDy=0;fillColor=#f9f7ed;strokeColor=#FFFFFF;strokeWidth=2;" parent="1" source="16" target="2" edge="1">
                    <mxGeometry relative="1" as="geometry">
                        <mxPoint x="120" y="120" as="sourcePoint"/>
                        <mxPoint x="280" y="120" as="targetPoint"/>
                    </mxGeometry>
                </mxCell>
                <mxCell id="20" value="Image" style="ellipse;whiteSpace=wrap;html=1;align=center;" parent="1" vertex="1">
                    <mxGeometry y="170" width="100" height="40" as="geometry"/>
                </mxCell>
                <mxCell id="21" value="" style="endArrow=none;html=1;rounded=0;exitX=1;exitY=0.5;exitDx=0;exitDy=0;entryX=0.003;entryY=0.135;entryDx=0;entryDy=0;entryPerimeter=0;strokeWidth=2;fillColor=#f9f7ed;strokeColor=#FFFFFF;" parent="1" source="20" target="2" edge="1">
                    <mxGeometry relative="1" as="geometry">
                        <mxPoint x="50" y="180" as="sourcePoint"/>
                        <mxPoint x="210" y="180" as="targetPoint"/>
                    </mxGeometry>
                </mxCell>
                <mxCell id="23" value="Hotel" style="whiteSpace=wrap;html=1;align=center;" parent="1" vertex="1">
                    <mxGeometry x="924.4" y="180" width="160" height="80" as="geometry"/>
                </mxCell>
                <mxCell id="24" value="ID" style="ellipse;whiteSpace=wrap;html=1;align=center;" parent="1" vertex="1">
                    <mxGeometry x="880" y="60" width="100" height="40" as="geometry"/>
                </mxCell>
                <mxCell id="25" value="Name" style="ellipse;whiteSpace=wrap;html=1;align=center;" parent="1" vertex="1">
                    <mxGeometry x="1010.0000000000001" y="50" width="100" height="40" as="geometry"/>
                </mxCell>
                <mxCell id="26" value="Address" style="ellipse;whiteSpace=wrap;html=1;align=center;" parent="1" vertex="1">
                    <mxGeometry x="1135.6" y="100" width="100" height="40" as="geometry"/>
                </mxCell>
                <mxCell id="27" value="Likes" style="ellipse;whiteSpace=wrap;html=1;align=center;" parent="1" vertex="1">
                    <mxGeometry x="690.0000000000001" y="5" width="100" height="40" as="geometry"/>
                </mxCell>
                <mxCell id="28" value="Description" style="ellipse;whiteSpace=wrap;html=1;align=center;" parent="1" vertex="1">
                    <mxGeometry x="1200" y="250" width="100" height="40" as="geometry"/>
                </mxCell>
                <mxCell id="29" value="Image" style="ellipse;whiteSpace=wrap;html=1;align=center;" parent="1" vertex="1">
                    <mxGeometry x="1120" y="320" width="100" height="40" as="geometry"/>
                </mxCell>
                <mxCell id="37" value="Country" style="ellipse;whiteSpace=wrap;html=1;align=center;" parent="1" vertex="1">
                    <mxGeometry x="1150" y="30" width="100" height="40" as="geometry"/>
                </mxCell>
                <mxCell id="38" value="Citry" style="ellipse;whiteSpace=wrap;html=1;align=center;" parent="1" vertex="1">
                    <mxGeometry x="1250" y="75" width="100" height="40" as="geometry"/>
                </mxCell>
                <mxCell id="41" value="" style="endArrow=none;html=1;rounded=0;shadow=0;labelBackgroundColor=default;strokeColor=#FFFFFF;fontFamily=Helvetica;fontSize=11;fontColor=default;shape=connector;entryX=0.18;entryY=-0.01;entryDx=0;entryDy=0;entryPerimeter=0;exitX=0.6;exitY=1;exitDx=0;exitDy=0;exitPerimeter=0;strokeWidth=2;" parent="1" source="24" target="23" edge="1">
                    <mxGeometry relative="1" as="geometry">
                        <mxPoint x="890" y="50" as="sourcePoint"/>
                        <mxPoint x="894.4" y="110" as="targetPoint"/>
                    </mxGeometry>
                </mxCell>
                <mxCell id="43" value="" style="endArrow=none;html=1;rounded=0;shadow=0;labelBackgroundColor=default;strokeColor=#FFFFFF;fontFamily=Helvetica;fontSize=11;fontColor=default;shape=connector;entryX=0.44;entryY=0.01;entryDx=0;entryDy=0;entryPerimeter=0;exitX=0.5;exitY=1;exitDx=0;exitDy=0;strokeWidth=2;" parent="1" source="25" target="23" edge="1">
                    <mxGeometry relative="1" as="geometry">
                        <mxPoint x="899.9999999999999" y="50" as="sourcePoint"/>
                        <mxPoint x="963.1999999999999" y="189.20000000000005" as="targetPoint"/>
                    </mxGeometry>
                </mxCell>
                <mxCell id="47" value="" style="endArrow=none;html=1;rounded=0;shadow=0;labelBackgroundColor=default;strokeColor=#FFFFFF;fontFamily=Helvetica;fontSize=11;fontColor=default;shape=connector;entryX=0;entryY=1;entryDx=0;entryDy=0;exitX=0.75;exitY=0;exitDx=0;exitDy=0;strokeWidth=2;" parent="1" source="23" target="26" edge="1">
                    <mxGeometry relative="1" as="geometry">
                        <mxPoint x="1084.4" y="110" as="sourcePoint"/>
                        <mxPoint x="1244.4" y="110" as="targetPoint"/>
                    </mxGeometry>
                </mxCell>
                <mxCell id="50" value="" style="endArrow=none;html=1;rounded=0;shadow=0;labelBackgroundColor=default;strokeColor=#FFFFFF;fontFamily=Helvetica;fontSize=11;fontColor=default;shape=connector;exitX=1;exitY=0.75;exitDx=0;exitDy=0;entryX=0;entryY=0.5;entryDx=0;entryDy=0;strokeWidth=2;" parent="1" source="23" target="28" edge="1">
                    <mxGeometry relative="1" as="geometry">
                        <mxPoint x="1134.4" y="260" as="sourcePoint"/>
                        <mxPoint x="1294.4" y="260" as="targetPoint"/>
                    </mxGeometry>
                </mxCell>
                <mxCell id="51" value="" style="endArrow=none;html=1;rounded=0;shadow=0;labelBackgroundColor=default;strokeColor=#FFFFFF;fontFamily=Helvetica;fontSize=11;fontColor=default;shape=connector;exitX=0.75;exitY=1;exitDx=0;exitDy=0;entryX=0;entryY=0;entryDx=0;entryDy=0;strokeWidth=2;" parent="1" source="23" target="29" edge="1">
                    <mxGeometry relative="1" as="geometry">
                        <mxPoint x="1024.4" y="330" as="sourcePoint"/>
                        <mxPoint x="1184.4" y="330" as="targetPoint"/>
                    </mxGeometry>
                </mxCell>
                <mxCell id="52" value="" style="endArrow=none;html=1;rounded=0;shadow=0;labelBackgroundColor=default;strokeColor=#FFFFFF;fontFamily=Helvetica;fontSize=11;fontColor=default;shape=connector;exitX=0.5;exitY=0;exitDx=0;exitDy=0;entryX=0.5;entryY=1;entryDx=0;entryDy=0;strokeWidth=2;" parent="1" source="26" target="37" edge="1">
                    <mxGeometry relative="1" as="geometry">
                        <mxPoint x="1240" y="60" as="sourcePoint"/>
                        <mxPoint x="1400" y="60" as="targetPoint"/>
                    </mxGeometry>
                </mxCell>
                <mxCell id="53" value="" style="endArrow=none;html=1;rounded=0;shadow=0;labelBackgroundColor=default;strokeColor=#FFFFFF;fontFamily=Helvetica;fontSize=11;fontColor=default;shape=connector;exitX=1;exitY=0.5;exitDx=0;exitDy=0;entryX=0;entryY=1;entryDx=0;entryDy=0;strokeWidth=2;" parent="1" source="26" target="38" edge="1">
                    <mxGeometry relative="1" as="geometry">
                        <mxPoint x="1320" y="130" as="sourcePoint"/>
                        <mxPoint x="1480" y="130" as="targetPoint"/>
                    </mxGeometry>
                </mxCell>
                <mxCell id="54" value="Own" style="shape=rhombus;perimeter=rhombusPerimeter;whiteSpace=wrap;html=1;align=center;fontFamily=Helvetica;fontSize=11;fontColor=default;" parent="1" vertex="1">
                    <mxGeometry x="600.01" y="140" width="120" height="60" as="geometry"/>
                </mxCell>
                <mxCell id="71" value="Review" style="whiteSpace=wrap;html=1;align=center;" parent="1" vertex="1">
                    <mxGeometry x="600" y="500" width="160" height="80" as="geometry"/>
                </mxCell>
                <mxCell id="72" value="Room" style="whiteSpace=wrap;html=1;align=center;" parent="1" vertex="1">
                    <mxGeometry x="600" y="740" width="160" height="80" as="geometry"/>
                </mxCell>
                <mxCell id="73" value="Make" style="shape=rhombus;perimeter=rhombusPerimeter;whiteSpace=wrap;html=1;align=center;fontFamily=Helvetica;fontSize=11;fontColor=default;" parent="1" vertex="1">
                    <mxGeometry x="305" y="510" width="120" height="60" as="geometry"/>
                </mxCell>
                <mxCell id="74" value="Book" style="shape=rhombus;perimeter=rhombusPerimeter;whiteSpace=wrap;html=1;align=center;fontFamily=Helvetica;fontSize=11;fontColor=default;" parent="1" vertex="1">
                    <mxGeometry x="140" y="770" width="120" height="60" as="geometry"/>
                </mxCell>
                <mxCell id="75" value="Has" style="shape=rhombus;perimeter=rhombusPerimeter;whiteSpace=wrap;html=1;align=center;fontFamily=Helvetica;fontSize=11;fontColor=default;" parent="1" vertex="1">
                    <mxGeometry x="904.4" y="530" width="120" height="60" as="geometry"/>
                </mxCell>
                <mxCell id="76" value="Consist Of" style="shape=rhombus;perimeter=rhombusPerimeter;whiteSpace=wrap;html=1;align=center;fontFamily=Helvetica;fontSize=11;fontColor=default;" parent="1" vertex="1">
                    <mxGeometry x="980.0000000000001" y="760" width="120" height="60" as="geometry"/>
                </mxCell>
                <mxCell id="77" value="Room Image" style="whiteSpace=wrap;html=1;align=center;strokeColor=#FFFFFF;strokeWidth=1;" parent="1" vertex="1">
                    <mxGeometry x="600" y="1090" width="160" height="80" as="geometry"/>
                </mxCell>
                <mxCell id="78" value="Preview" style="shape=rhombus;perimeter=rhombusPerimeter;whiteSpace=wrap;html=1;align=center;fontFamily=Helvetica;fontSize=11;fontColor=default;" parent="1" vertex="1">
                    <mxGeometry x="620" y="930" width="120" height="60" as="geometry"/>
                </mxCell>
                <mxCell id="79" value="Feature" style="whiteSpace=wrap;html=1;align=center;" parent="1" vertex="1">
                    <mxGeometry x="1535" y="730" width="160" height="80" as="geometry"/>
                </mxCell>
                <mxCell id="80" value="Contain" style="shape=rhombus;perimeter=rhombusPerimeter;whiteSpace=wrap;html=1;align=center;fontFamily=Helvetica;fontSize=11;fontColor=default;" parent="1" vertex="1">
                    <mxGeometry x="1300" y="740" width="120" height="60" as="geometry"/>
                </mxCell>
                <mxCell id="81" value="Rating" style="ellipse;whiteSpace=wrap;html=1;align=center;" parent="1" vertex="1">
                    <mxGeometry x="580" y="390" width="100" height="40" as="geometry"/>
                </mxCell>
                <mxCell id="83" value="" style="endArrow=none;html=1;rounded=0;exitX=0.5;exitY=1;exitDx=0;exitDy=0;entryX=0.5;entryY=0;entryDx=0;entryDy=0;strokeWidth=2;strokeColor=#FFFFFF;" parent="1" source="81" target="71" edge="1">
                    <mxGeometry relative="1" as="geometry">
                        <mxPoint x="650" y="440" as="sourcePoint"/>
                        <mxPoint x="810" y="440" as="targetPoint"/>
                    </mxGeometry>
                </mxCell>
                <mxCell id="84" value="ID" style="ellipse;whiteSpace=wrap;html=1;align=center;fontStyle=4;" parent="1" vertex="1">
                    <mxGeometry x="480" y="420" width="100" height="40" as="geometry"/>
                </mxCell>
                <mxCell id="85" value="" style="endArrow=none;html=1;rounded=0;exitX=0.5;exitY=1;exitDx=0;exitDy=0;entryX=0.25;entryY=0;entryDx=0;entryDy=0;strokeColor=#FFFFFF;strokeWidth=2;" parent="1" source="84" target="71" edge="1">
                    <mxGeometry relative="1" as="geometry">
                        <mxPoint x="530" y="470" as="sourcePoint"/>
                        <mxPoint x="690" y="470" as="targetPoint"/>
                    </mxGeometry>
                </mxCell>
                <mxCell id="86" value="Comment" style="ellipse;whiteSpace=wrap;html=1;align=center;" parent="1" vertex="1">
                    <mxGeometry x="700" y="390" width="100" height="40" as="geometry"/>
                </mxCell>
                <mxCell id="87" value="" style="endArrow=none;html=1;rounded=0;exitX=0.5;exitY=1;exitDx=0;exitDy=0;entryX=0.75;entryY=0;entryDx=0;entryDy=0;strokeColor=#FFFFFF;strokeWidth=2;" parent="1" source="86" target="71" edge="1">
                    <mxGeometry relative="1" as="geometry">
                        <mxPoint x="780" y="460" as="sourcePoint"/>
                        <mxPoint x="940" y="460" as="targetPoint"/>
                    </mxGeometry>
                </mxCell>
                <mxCell id="88" value="Date" style="ellipse;whiteSpace=wrap;html=1;align=center;" parent="1" vertex="1">
                    <mxGeometry x="790" y="440" width="100" height="40" as="geometry"/>
                </mxCell>
                <mxCell id="90" value="" style="endArrow=none;html=1;rounded=0;exitX=1;exitY=0.5;exitDx=0;exitDy=0;entryX=0;entryY=1;entryDx=0;entryDy=0;strokeWidth=2;strokeColor=#FFFFFF;" parent="1" source="71" target="88" edge="1">
                    <mxGeometry relative="1" as="geometry">
                        <mxPoint x="770" y="520" as="sourcePoint"/>
                        <mxPoint x="930" y="520" as="targetPoint"/>
                    </mxGeometry>
                </mxCell>
                <mxCell id="92" value="ID" style="ellipse;whiteSpace=wrap;html=1;align=center;fontStyle=4;" parent="1" vertex="1">
                    <mxGeometry x="630" y="640" width="100" height="40" as="geometry"/>
                </mxCell>
                <mxCell id="93" value="" style="endArrow=none;html=1;rounded=0;exitX=0.5;exitY=1;exitDx=0;exitDy=0;entryX=0.5;entryY=0;entryDx=0;entryDy=0;strokeWidth=2;strokeColor=#FFFFFF;" parent="1" source="92" target="72" edge="1">
                    <mxGeometry relative="1" as="geometry">
                        <mxPoint x="620" y="730" as="sourcePoint"/>
                        <mxPoint x="780" y="730" as="targetPoint"/>
                    </mxGeometry>
                </mxCell>
                <mxCell id="94" value="Room_Number" style="ellipse;whiteSpace=wrap;html=1;align=center;" parent="1" vertex="1">
                    <mxGeometry x="500" y="660" width="100" height="40" as="geometry"/>
                </mxCell>
                <mxCell id="95" value="" style="endArrow=none;html=1;rounded=0;exitX=0.5;exitY=1;exitDx=0;exitDy=0;entryX=0.25;entryY=0;entryDx=0;entryDy=0;strokeWidth=2;strokeColor=#FFFFFF;" parent="1" source="94" target="72" edge="1">
                    <mxGeometry relative="1" as="geometry">
                        <mxPoint x="490" y="730" as="sourcePoint"/>
                        <mxPoint x="650" y="730" as="targetPoint"/>
                    </mxGeometry>
                </mxCell>
                <mxCell id="97" value="Price" style="ellipse;whiteSpace=wrap;html=1;align=center;" parent="1" vertex="1">
                    <mxGeometry x="760" y="660" width="100" height="40" as="geometry"/>
                </mxCell>
                <mxCell id="98" value="" style="endArrow=none;html=1;rounded=0;exitX=0.75;exitY=0;exitDx=0;exitDy=0;entryX=0;entryY=1;entryDx=0;entryDy=0;strokeColor=#FFFFFF;strokeWidth=2;" parent="1" source="72" target="97" edge="1">
                    <mxGeometry relative="1" as="geometry">
                        <mxPoint x="810" y="760" as="sourcePoint"/>
                        <mxPoint x="970" y="760" as="targetPoint"/>
                    </mxGeometry>
                </mxCell>
                <mxCell id="99" value="Bed_Count" style="ellipse;whiteSpace=wrap;html=1;align=center;" parent="1" vertex="1">
                    <mxGeometry x="410" y="720" width="100" height="40" as="geometry"/>
                </mxCell>
                <mxCell id="100" value="" style="endArrow=none;html=1;rounded=0;exitX=1;exitY=0.5;exitDx=0;exitDy=0;entryX=0;entryY=0.25;entryDx=0;entryDy=0;strokeWidth=2;strokeColor=#FFFFFF;" parent="1" source="99" target="72" edge="1">
                    <mxGeometry relative="1" as="geometry">
                        <mxPoint x="450" y="790" as="sourcePoint"/>
                        <mxPoint x="610" y="790" as="targetPoint"/>
                    </mxGeometry>
                </mxCell>
                <mxCell id="101" value="ID" style="ellipse;whiteSpace=wrap;html=1;align=center;fontStyle=4;" parent="1" vertex="1">
                    <mxGeometry x="500.01" y="1010" width="100" height="40" as="geometry"/>
                </mxCell>
                <mxCell id="102" value="" style="endArrow=none;html=1;rounded=0;exitX=1;exitY=1;exitDx=0;exitDy=0;entryX=0.25;entryY=0;entryDx=0;entryDy=0;strokeWidth=2;strokeColor=#FFFFFF;" parent="1" source="101" target="77" edge="1">
                    <mxGeometry relative="1" as="geometry">
                        <mxPoint x="470" y="1080" as="sourcePoint"/>
                        <mxPoint x="630" y="1080" as="targetPoint"/>
                    </mxGeometry>
                </mxCell>
                <mxCell id="103" value="Image" style="ellipse;whiteSpace=wrap;html=1;align=center;" parent="1" vertex="1">
                    <mxGeometry x="740" y="1010" width="100" height="40" as="geometry"/>
                </mxCell>
                <mxCell id="104" value="" style="endArrow=none;html=1;rounded=0;exitX=0;exitY=1;exitDx=0;exitDy=0;entryX=0.75;entryY=0;entryDx=0;entryDy=0;strokeWidth=2;strokeColor=#FFFFFF;" parent="1" source="103" target="77" edge="1">
                    <mxGeometry relative="1" as="geometry">
                        <mxPoint x="510" y="1130" as="sourcePoint"/>
                        <mxPoint x="670" y="1130" as="targetPoint"/>
                    </mxGeometry>
                </mxCell>
                <mxCell id="105" value="Watch_Count" style="ellipse;whiteSpace=wrap;html=1;align=center;" parent="1" vertex="1">
                    <mxGeometry x="480" y="290" width="100" height="40" as="geometry"/>
                </mxCell>
                <mxCell id="106" value="" style="endArrow=none;html=1;rounded=0;shadow=0;sketch=0;exitX=1;exitY=0;exitDx=0;exitDy=0;entryX=0;entryY=1;entryDx=0;entryDy=0;strokeColor=#FFFFFF;strokeWidth=2;" parent="1" source="105" target="187" edge="1">
                    <mxGeometry relative="1" as="geometry">
                        <mxPoint x="790" y="120" as="sourcePoint"/>
                        <mxPoint x="950" y="120" as="targetPoint"/>
                    </mxGeometry>
                </mxCell>
                <mxCell id="107" value="ID" style="ellipse;whiteSpace=wrap;html=1;align=center;fontStyle=4;" parent="1" vertex="1">
                    <mxGeometry x="1495" y="620" width="100" height="40" as="geometry"/>
                </mxCell>
                <mxCell id="108" value="" style="endArrow=none;html=1;rounded=0;shadow=0;sketch=0;entryX=0.5;entryY=1;entryDx=0;entryDy=0;exitX=0.75;exitY=0;exitDx=0;exitDy=0;strokeWidth=2;strokeColor=#FFFFFF;" parent="1" source="79" target="107" edge="1">
                    <mxGeometry relative="1" as="geometry">
                        <mxPoint x="1605" y="770" as="sourcePoint"/>
                        <mxPoint x="1765" y="770" as="targetPoint"/>
                    </mxGeometry>
                </mxCell>
                <mxCell id="109" value="Amenities" style="ellipse;whiteSpace=wrap;html=1;align=center;" parent="1" vertex="1">
                    <mxGeometry x="1745" y="630" width="100" height="40" as="geometry"/>
                </mxCell>
                <mxCell id="110" value="" style="endArrow=none;html=1;rounded=0;shadow=0;sketch=0;exitX=1;exitY=0.25;exitDx=0;exitDy=0;entryX=0;entryY=1;entryDx=0;entryDy=0;strokeColor=#FFFFFF;strokeWidth=2;" parent="1" source="79" target="109" edge="1">
                    <mxGeometry relative="1" as="geometry">
                        <mxPoint x="1715" y="830" as="sourcePoint"/>
                        <mxPoint x="1875" y="830" as="targetPoint"/>
                    </mxGeometry>
                </mxCell>
                <mxCell id="111" value="Free Parking" style="ellipse;whiteSpace=wrap;html=1;align=center;" parent="1" vertex="1">
                    <mxGeometry x="1605" y="550" width="100" height="40" as="geometry"/>
                </mxCell>
                <mxCell id="112" value="Laundry Facility" style="ellipse;whiteSpace=wrap;html=1;align=center;" parent="1" vertex="1">
                    <mxGeometry x="1715" y="530" width="100" height="40" as="geometry"/>
                </mxCell>
                <mxCell id="113" value="Free Wifi" style="ellipse;whiteSpace=wrap;html=1;align=center;" parent="1" vertex="1">
                    <mxGeometry x="1950" y="540" width="100" height="40" as="geometry"/>
                </mxCell>
                <mxCell id="114" value="Airport Transfer" style="ellipse;whiteSpace=wrap;html=1;align=center;" parent="1" vertex="1">
                    <mxGeometry x="2025" y="660" width="100" height="40" as="geometry"/>
                </mxCell>
                <mxCell id="115" value="Restaurant" style="ellipse;whiteSpace=wrap;html=1;align=center;" parent="1" vertex="1">
                    <mxGeometry x="1905" y="760" width="100" height="40" as="geometry"/>
                </mxCell>
                <mxCell id="116" value="Air Condition" style="ellipse;whiteSpace=wrap;html=1;align=center;" parent="1" vertex="1">
                    <mxGeometry x="1785" y="780" width="100" height="40" as="geometry"/>
                </mxCell>
                <mxCell id="117" value="Free Breakfast" style="ellipse;whiteSpace=wrap;html=1;align=center;" parent="1" vertex="1">
                    <mxGeometry x="1985" y="600" width="100" height="40" as="geometry"/>
                </mxCell>
                <mxCell id="118" value="24/7 Font Desk" style="ellipse;whiteSpace=wrap;html=1;align=center;" parent="1" vertex="1">
                    <mxGeometry x="2025" y="730" width="100" height="40" as="geometry"/>
                </mxCell>
                <mxCell id="119" value="No Smoking" style="ellipse;whiteSpace=wrap;html=1;align=center;" parent="1" vertex="1">
                    <mxGeometry x="1835" y="520" width="100" height="40" as="geometry"/>
                </mxCell>
                <mxCell id="120" value="" style="endArrow=none;html=1;rounded=0;shadow=0;sketch=0;entryX=0;entryY=0;entryDx=0;entryDy=0;exitX=1;exitY=1;exitDx=0;exitDy=0;strokeWidth=2;strokeColor=#FFFFFF;" parent="1" source="111" target="109" edge="1">
                    <mxGeometry relative="1" as="geometry">
                        <mxPoint x="1675" y="590" as="sourcePoint"/>
                        <mxPoint x="1785" y="630" as="targetPoint"/>
                    </mxGeometry>
                </mxCell>
                <mxCell id="121" value="" style="endArrow=none;html=1;rounded=0;shadow=0;sketch=0;exitX=0.584;exitY=1.01;exitDx=0;exitDy=0;exitPerimeter=0;entryX=0.5;entryY=0;entryDx=0;entryDy=0;strokeWidth=2;strokeColor=#FFFFFF;" parent="1" source="112" target="109" edge="1">
                    <mxGeometry relative="1" as="geometry">
                        <mxPoint x="1775" y="600" as="sourcePoint"/>
                        <mxPoint x="1935" y="600" as="targetPoint"/>
                    </mxGeometry>
                </mxCell>
                <mxCell id="122" value="" style="endArrow=none;html=1;rounded=0;shadow=0;sketch=0;exitX=0.5;exitY=1;exitDx=0;exitDy=0;entryX=1;entryY=0;entryDx=0;entryDy=0;strokeWidth=2;strokeColor=#FFFFFF;" parent="1" source="119" target="109" edge="1">
                    <mxGeometry relative="1" as="geometry">
                        <mxPoint x="1815" y="600" as="sourcePoint"/>
                        <mxPoint x="1975" y="600" as="targetPoint"/>
                    </mxGeometry>
                </mxCell>
                <mxCell id="123" value="" style="endArrow=none;html=1;rounded=0;shadow=0;sketch=0;entryX=0;entryY=1;entryDx=0;entryDy=0;exitX=1;exitY=0.5;exitDx=0;exitDy=0;strokeWidth=2;strokeColor=#FFFFFF;" parent="1" source="109" target="113" edge="1">
                    <mxGeometry relative="1" as="geometry">
                        <mxPoint x="1805" y="610" as="sourcePoint"/>
                        <mxPoint x="1965" y="610" as="targetPoint"/>
                    </mxGeometry>
                </mxCell>
                <mxCell id="124" value="" style="endArrow=none;html=1;rounded=0;shadow=0;sketch=0;entryX=0;entryY=0.5;entryDx=0;entryDy=0;exitX=1;exitY=0.5;exitDx=0;exitDy=0;strokeWidth=2;strokeColor=#FFFFFF;" parent="1" source="109" target="117" edge="1">
                    <mxGeometry relative="1" as="geometry">
                        <mxPoint x="1845" y="650" as="sourcePoint"/>
                        <mxPoint x="1955" y="700" as="targetPoint"/>
                    </mxGeometry>
                </mxCell>
                <mxCell id="125" value="" style="endArrow=none;html=1;rounded=0;shadow=0;sketch=0;entryX=0;entryY=0.5;entryDx=0;entryDy=0;exitX=1;exitY=1;exitDx=0;exitDy=0;strokeColor=#FFFFFF;strokeWidth=2;" parent="1" source="109" target="114" edge="1">
                    <mxGeometry relative="1" as="geometry">
                        <mxPoint x="1845" y="700" as="sourcePoint"/>
                        <mxPoint x="2005" y="700" as="targetPoint"/>
                    </mxGeometry>
                </mxCell>
                <mxCell id="126" value="" style="endArrow=none;html=1;rounded=0;shadow=0;sketch=0;exitX=1;exitY=1;exitDx=0;exitDy=0;entryX=0;entryY=0;entryDx=0;entryDy=0;strokeWidth=2;strokeColor=#FFFFFF;" parent="1" source="109" target="118" edge="1">
                    <mxGeometry relative="1" as="geometry">
                        <mxPoint x="1875" y="710" as="sourcePoint"/>
                        <mxPoint x="2035" y="710" as="targetPoint"/>
                    </mxGeometry>
                </mxCell>
                <mxCell id="127" value="" style="endArrow=none;html=1;rounded=0;shadow=0;sketch=0;entryX=0;entryY=0;entryDx=0;entryDy=0;exitX=0.5;exitY=1;exitDx=0;exitDy=0;strokeWidth=2;strokeColor=#FFFFFF;" parent="1" source="109" target="115" edge="1">
                    <mxGeometry relative="1" as="geometry">
                        <mxPoint x="1755" y="720" as="sourcePoint"/>
                        <mxPoint x="1915" y="720" as="targetPoint"/>
                    </mxGeometry>
                </mxCell>
                <mxCell id="128" value="" style="endArrow=none;html=1;rounded=0;shadow=0;sketch=0;entryX=0.5;entryY=1;entryDx=0;entryDy=0;exitX=0.5;exitY=0;exitDx=0;exitDy=0;strokeColor=#FFFFFF;strokeWidth=2;" parent="1" source="116" target="109" edge="1">
                    <mxGeometry relative="1" as="geometry">
                        <mxPoint x="1605" y="770" as="sourcePoint"/>
                        <mxPoint x="1765" y="770" as="targetPoint"/>
                    </mxGeometry>
                </mxCell>
                <mxCell id="129" value="Food &amp;amp; Drink" style="ellipse;shape=doubleEllipse;margin=3;whiteSpace=wrap;html=1;align=center;" parent="1" vertex="1">
                    <mxGeometry x="1705" y="920" width="100" height="40" as="geometry"/>
                </mxCell>
                <mxCell id="130" value="" style="endArrow=none;html=1;rounded=0;shadow=0;sketch=0;entryX=0;entryY=0;entryDx=0;entryDy=0;exitX=1;exitY=1;exitDx=0;exitDy=0;strokeWidth=2;strokeColor=#FFFFFF;" parent="1" source="79" target="129" edge="1">
                    <mxGeometry relative="1" as="geometry">
                        <mxPoint x="1605" y="770" as="sourcePoint"/>
                        <mxPoint x="1765" y="770" as="targetPoint"/>
                    </mxGeometry>
                </mxCell>
                <mxCell id="131" value="Service" style="ellipse;shape=doubleEllipse;margin=3;whiteSpace=wrap;html=1;align=center;" parent="1" vertex="1">
                    <mxGeometry x="1585" y="920" width="100" height="40" as="geometry"/>
                </mxCell>
                <mxCell id="132" value="Fun Program" style="ellipse;shape=doubleEllipse;margin=3;whiteSpace=wrap;html=1;align=center;" parent="1" vertex="1">
                    <mxGeometry x="1455" y="910" width="100" height="40" as="geometry"/>
                </mxCell>
                <mxCell id="133" value="Facility" style="ellipse;shape=doubleEllipse;margin=3;whiteSpace=wrap;html=1;align=center;" parent="1" vertex="1">
                    <mxGeometry x="1845" y="900" width="100" height="40" as="geometry"/>
                </mxCell>
                <mxCell id="135" value="" style="endArrow=none;html=1;rounded=0;shadow=0;sketch=0;entryX=0.25;entryY=1;entryDx=0;entryDy=0;exitX=0.5;exitY=0;exitDx=0;exitDy=0;strokeWidth=2;strokeColor=#FFFFFF;" parent="1" source="132" target="79" edge="1">
                    <mxGeometry relative="1" as="geometry">
                        <mxPoint x="1425" y="850" as="sourcePoint"/>
                        <mxPoint x="1585" y="850" as="targetPoint"/>
                    </mxGeometry>
                </mxCell>
                <mxCell id="136" value="" style="endArrow=none;html=1;rounded=0;shadow=0;entryX=0.5;entryY=1;entryDx=0;entryDy=0;exitX=0.5;exitY=0;exitDx=0;exitDy=0;strokeWidth=2;strokeColor=#FFFFFF;" parent="1" source="131" target="79" edge="1">
                    <mxGeometry relative="1" as="geometry">
                        <mxPoint x="1535" y="880" as="sourcePoint"/>
                        <mxPoint x="1695" y="880" as="targetPoint"/>
                    </mxGeometry>
                </mxCell>
                <mxCell id="137" value="" style="endArrow=none;html=1;rounded=0;shadow=0;sketch=0;exitX=1;exitY=0.75;exitDx=0;exitDy=0;entryX=0;entryY=0;entryDx=0;entryDy=0;strokeWidth=2;strokeColor=#FFFFFF;" parent="1" source="79" target="133" edge="1">
                    <mxGeometry relative="1" as="geometry">
                        <mxPoint x="1755" y="840" as="sourcePoint"/>
                        <mxPoint x="1915" y="840" as="targetPoint"/>
                    </mxGeometry>
                </mxCell>
                <mxCell id="146" value="" style="endArrow=none;html=1;rounded=0;dashed=1;dashPattern=1 2;shadow=0;sketch=0;exitX=1;exitY=0.25;exitDx=0;exitDy=0;entryX=0;entryY=0.5;entryDx=0;entryDy=0;strokeColor=#FFFFFF;strokeWidth=2;" parent="1" source="2" target="54" edge="1">
                    <mxGeometry relative="1" as="geometry">
                        <mxPoint x="420" y="199.5" as="sourcePoint"/>
                        <mxPoint x="580" y="199.5" as="targetPoint"/>
                    </mxGeometry>
                </mxCell>
                <mxCell id="147" value="1" style="resizable=0;html=1;align=right;verticalAlign=bottom;fontColor=#FFFFFF;" parent="146" connectable="0" vertex="1">
                    <mxGeometry x="1" relative="1" as="geometry"/>
                </mxCell>
                <mxCell id="150" value="" style="endArrow=none;html=1;rounded=0;shadow=1;sketch=0;exitX=1;exitY=0.5;exitDx=0;exitDy=0;entryX=0;entryY=0.25;entryDx=0;entryDy=0;strokeColor=#FFFFFF;strokeWidth=2;" parent="1" target="23" edge="1" source="54">
                    <mxGeometry relative="1" as="geometry">
                        <mxPoint x="730" y="199.5" as="sourcePoint"/>
                        <mxPoint x="920" y="190" as="targetPoint"/>
                    </mxGeometry>
                </mxCell>
                <mxCell id="151" value="N" style="resizable=0;html=1;align=right;verticalAlign=bottom;fontColor=#FFFFFF;" parent="150" connectable="0" vertex="1">
                    <mxGeometry x="1" relative="1" as="geometry">
                        <mxPoint x="-195" y="-30" as="offset"/>
                    </mxGeometry>
                </mxCell>
                <mxCell id="152" value="" style="endArrow=none;html=1;rounded=0;shadow=1;sketch=0;exitX=1;exitY=0.5;exitDx=0;exitDy=0;entryX=0;entryY=0.5;entryDx=0;entryDy=0;strokeWidth=2;strokeColor=#FFFFFF;" parent="1" source="73" target="71" edge="1">
                    <mxGeometry relative="1" as="geometry">
                        <mxPoint x="430" y="530" as="sourcePoint"/>
                        <mxPoint x="590" y="530" as="targetPoint"/>
                    </mxGeometry>
                </mxCell>
                <mxCell id="153" value="N" style="resizable=0;html=1;align=right;verticalAlign=bottom;fontColor=#FFFFFF;" parent="152" connectable="0" vertex="1">
                    <mxGeometry x="1" relative="1" as="geometry">
                        <mxPoint x="-175" as="offset"/>
                    </mxGeometry>
                </mxCell>
                <mxCell id="154" value="" style="endArrow=none;html=1;rounded=0;dashed=1;dashPattern=1 2;shadow=0;sketch=0;entryX=0;entryY=1;entryDx=0;entryDy=0;exitX=0.5;exitY=0;exitDx=0;exitDy=0;strokeWidth=2;strokeColor=#FFFFFF;" parent="1" source="74" target="2" edge="1">
                    <mxGeometry relative="1" as="geometry">
                        <mxPoint x="140" y="610" as="sourcePoint"/>
                        <mxPoint x="300" y="610" as="targetPoint"/>
                    </mxGeometry>
                </mxCell>
                <mxCell id="155" value="1" style="resizable=0;html=1;align=right;verticalAlign=bottom;fontColor=#FFFFFF;" parent="154" connectable="0" vertex="1">
                    <mxGeometry x="1" relative="1" as="geometry">
                        <mxPoint x="-10" y="500" as="offset"/>
                    </mxGeometry>
                </mxCell>
                <mxCell id="158" value="" style="endArrow=none;html=1;rounded=0;shadow=1;sketch=0;exitX=1;exitY=0.5;exitDx=0;exitDy=0;entryX=0;entryY=0.75;entryDx=0;entryDy=0;strokeWidth=2;strokeColor=#FFFFFF;" parent="1" source="74" target="72" edge="1">
                    <mxGeometry relative="1" as="geometry">
                        <mxPoint x="310" y="810" as="sourcePoint"/>
                        <mxPoint x="470" y="810" as="targetPoint"/>
                    </mxGeometry>
                </mxCell>
                <mxCell id="159" value="N" style="resizable=0;html=1;align=right;verticalAlign=bottom;fontColor=#FFFFFF;" parent="158" connectable="0" vertex="1">
                    <mxGeometry x="1" relative="1" as="geometry">
                        <mxPoint x="-320" as="offset"/>
                    </mxGeometry>
                </mxCell>
                <mxCell id="160" value="" style="endArrow=none;html=1;rounded=0;dashed=1;dashPattern=1 2;shadow=0;sketch=0;exitX=0.25;exitY=1;exitDx=0;exitDy=0;entryX=0.5;entryY=0;entryDx=0;entryDy=0;strokeWidth=2;strokeColor=#FFFFFF;" parent="1" source="23" target="75" edge="1">
                    <mxGeometry relative="1" as="geometry">
                        <mxPoint x="940" y="390" as="sourcePoint"/>
                        <mxPoint x="1100" y="390" as="targetPoint"/>
                    </mxGeometry>
                </mxCell>
                <mxCell id="161" value="1" style="resizable=0;html=1;align=right;verticalAlign=bottom;fontColor=#FFFFFF;" parent="160" connectable="0" vertex="1">
                    <mxGeometry x="1" relative="1" as="geometry"/>
                </mxCell>
                <mxCell id="162" value="" style="endArrow=none;html=1;rounded=0;shadow=0;sketch=0;exitX=1;exitY=0.75;exitDx=0;exitDy=0;entryX=0;entryY=0.5;entryDx=0;entryDy=0;strokeWidth=2;strokeColor=#FFFFFF;" parent="1" source="71" target="75" edge="1">
                    <mxGeometry relative="1" as="geometry">
                        <mxPoint x="770" y="550" as="sourcePoint"/>
                        <mxPoint x="930" y="550" as="targetPoint"/>
                    </mxGeometry>
                </mxCell>
                <mxCell id="163" value="N" style="resizable=0;html=1;align=right;verticalAlign=bottom;fontColor=#FFFFFF;" parent="162" connectable="0" vertex="1">
                    <mxGeometry x="1" relative="1" as="geometry"/>
                </mxCell>
                <mxCell id="164" value="" style="endArrow=none;html=1;rounded=0;dashed=1;dashPattern=1 2;shadow=0;sketch=0;entryX=0.5;entryY=0;entryDx=0;entryDy=0;strokeWidth=2;strokeColor=#FFFFFF;" parent="1" target="76" edge="1">
                    <mxGeometry relative="1" as="geometry">
                        <mxPoint x="1040" y="260" as="sourcePoint"/>
                        <mxPoint x="1190" y="670" as="targetPoint"/>
                    </mxGeometry>
                </mxCell>
                <mxCell id="165" value="1" style="resizable=0;html=1;align=right;verticalAlign=bottom;fontColor=#FFFFFF;" parent="164" connectable="0" vertex="1">
                    <mxGeometry x="1" relative="1" as="geometry"/>
                </mxCell>
                <mxCell id="166" value="" style="endArrow=none;html=1;rounded=0;shadow=1;sketch=0;entryX=0;entryY=0.5;entryDx=0;entryDy=0;strokeWidth=2;strokeColor=#FFFFFF;" parent="1" target="76" edge="1">
                    <mxGeometry relative="1" as="geometry">
                        <mxPoint x="760" y="790" as="sourcePoint"/>
                        <mxPoint x="960" y="790" as="targetPoint"/>
                    </mxGeometry>
                </mxCell>
                <mxCell id="167" value="N" style="resizable=0;html=1;align=right;verticalAlign=bottom;fontColor=#FFFFFF;" parent="166" connectable="0" vertex="1">
                    <mxGeometry x="1" relative="1" as="geometry"/>
                </mxCell>
                <mxCell id="170" value="" style="endArrow=none;html=1;rounded=0;dashed=1;dashPattern=1 2;shadow=0;sketch=0;entryX=0.5;entryY=0;entryDx=0;entryDy=0;exitX=0.5;exitY=1;exitDx=0;exitDy=0;strokeWidth=2;strokeColor=#FFFFFF;" parent="1" source="72" target="78" edge="1">
                    <mxGeometry relative="1" as="geometry">
                        <mxPoint x="570" y="860" as="sourcePoint"/>
                        <mxPoint x="730" y="860" as="targetPoint"/>
                    </mxGeometry>
                </mxCell>
                <mxCell id="171" value="1" style="resizable=0;html=1;align=right;verticalAlign=bottom;fontColor=#FFFFFF;" parent="170" connectable="0" vertex="1">
                    <mxGeometry x="1" relative="1" as="geometry"/>
                </mxCell>
                <mxCell id="172" value="" style="endArrow=none;html=1;rounded=0;shadow=1;sketch=0;exitX=0.5;exitY=0;exitDx=0;exitDy=0;strokeWidth=2;strokeColor=#FFFFFF;entryX=0.5;entryY=1;entryDx=0;entryDy=0;" parent="1" source="77" target="78" edge="1">
                    <mxGeometry relative="1" as="geometry">
                        <mxPoint x="610" y="1030" as="sourcePoint"/>
                        <mxPoint x="680" y="990" as="targetPoint"/>
                    </mxGeometry>
                </mxCell>
                <mxCell id="173" value="N" style="resizable=0;html=1;align=right;verticalAlign=bottom;fontColor=#FFFFFF;" parent="172" connectable="0" vertex="1">
                    <mxGeometry x="1" relative="1" as="geometry">
                        <mxPoint y="20" as="offset"/>
                    </mxGeometry>
                </mxCell>
                <mxCell id="176" value="" style="endArrow=none;html=1;rounded=0;dashed=1;dashPattern=1 2;shadow=0;sketch=0;exitX=1;exitY=0.5;exitDx=0;exitDy=0;entryX=0.5;entryY=0;entryDx=0;entryDy=0;strokeWidth=2;strokeColor=#FFFFFF;" parent="1" source="23" target="80" edge="1">
                    <mxGeometry relative="1" as="geometry">
                        <mxPoint x="1290" y="220" as="sourcePoint"/>
                        <mxPoint x="1610" y="220" as="targetPoint"/>
                        <Array as="points">
                            <mxPoint x="1360" y="220"/>
                        </Array>
                    </mxGeometry>
                </mxCell>
                <mxCell id="177" value="1" style="resizable=0;html=1;align=right;verticalAlign=bottom;fontColor=#FFFFFF;" parent="176" connectable="0" vertex="1">
                    <mxGeometry x="1" relative="1" as="geometry"/>
                </mxCell>
                <mxCell id="178" value="" style="endArrow=none;html=1;rounded=0;shadow=1;sketch=0;entryX=1;entryY=0.5;entryDx=0;entryDy=0;exitX=0;exitY=0.5;exitDx=0;exitDy=0;strokeWidth=2;strokeColor=#FFFFFF;" parent="1" source="79" target="80" edge="1">
                    <mxGeometry relative="1" as="geometry">
                        <mxPoint x="1480" y="720" as="sourcePoint"/>
                        <mxPoint x="1640" y="720" as="targetPoint"/>
                    </mxGeometry>
                </mxCell>
                <mxCell id="179" value="N" style="resizable=0;html=1;align=right;verticalAlign=bottom;fontColor=#FFFFFF;" parent="178" connectable="0" vertex="1">
                    <mxGeometry x="1" relative="1" as="geometry"/>
                </mxCell>
                <mxCell id="181" value="Book Date" style="ellipse;whiteSpace=wrap;html=1;align=center;" parent="1" vertex="1">
                    <mxGeometry x="150" y="890" width="100" height="40" as="geometry"/>
                </mxCell>
                <mxCell id="182" value="Check Out" style="ellipse;whiteSpace=wrap;html=1;align=center;" parent="1" vertex="1">
                    <mxGeometry x="210" y="970" width="100" height="40" as="geometry"/>
                </mxCell>
                <mxCell id="183" value="Check In" style="ellipse;whiteSpace=wrap;html=1;align=center;" parent="1" vertex="1">
                    <mxGeometry x="80" y="960" width="100" height="40" as="geometry"/>
                </mxCell>
                <mxCell id="184" value="" style="endArrow=none;html=1;rounded=0;exitX=0.5;exitY=1;exitDx=0;exitDy=0;entryX=0.5;entryY=0;entryDx=0;entryDy=0;strokeWidth=2;strokeColor=#FFFFFF;" parent="1" source="74" target="181" edge="1">
                    <mxGeometry relative="1" as="geometry">
                        <mxPoint x="500" y="850" as="sourcePoint"/>
                        <mxPoint x="660" y="850" as="targetPoint"/>
                    </mxGeometry>
                </mxCell>
                <mxCell id="185" value="" style="endArrow=none;html=1;rounded=0;entryX=0;entryY=1;entryDx=0;entryDy=0;exitX=0.5;exitY=0;exitDx=0;exitDy=0;strokeWidth=2;strokeColor=#FFFFFF;" parent="1" source="183" target="181" edge="1">
                    <mxGeometry relative="1" as="geometry">
                        <mxPoint y="940" as="sourcePoint"/>
                        <mxPoint x="160" y="940" as="targetPoint"/>
                    </mxGeometry>
                </mxCell>
                <mxCell id="186" value="" style="endArrow=none;html=1;rounded=0;exitX=1;exitY=1;exitDx=0;exitDy=0;strokeWidth=2;strokeColor=#FFFFFF;" parent="1" source="181" target="182" edge="1">
                    <mxGeometry relative="1" as="geometry">
                        <mxPoint x="290" y="930" as="sourcePoint"/>
                        <mxPoint x="450" y="930" as="targetPoint"/>
                    </mxGeometry>
                </mxCell>
                <mxCell id="187" value="Watch" style="shape=rhombus;perimeter=rhombusPerimeter;whiteSpace=wrap;html=1;align=center;" vertex="1" parent="1">
                    <mxGeometry x="600" y="230" width="120" height="60" as="geometry"/>
                </mxCell>
                <mxCell id="192" value="" style="endArrow=none;html=1;rounded=0;dashed=1;dashPattern=1 2;strokeColor=#FFFFFF;strokeWidth=2;exitX=1;exitY=0.5;exitDx=0;exitDy=0;entryX=0;entryY=0.5;entryDx=0;entryDy=0;" edge="1" parent="1" source="2" target="187">
                    <mxGeometry relative="1" as="geometry">
                        <mxPoint x="410" y="220" as="sourcePoint"/>
                        <mxPoint x="570" y="220" as="targetPoint"/>
                    </mxGeometry>
                </mxCell>
                <mxCell id="195" value="N" style="resizable=0;html=1;align=right;verticalAlign=bottom;fontColor=#FFFFFF;" connectable="0" vertex="1" parent="1">
                    <mxGeometry x="600" y="240" as="geometry">
                        <mxPoint x="2" y="18" as="offset"/>
                    </mxGeometry>
                </mxCell>
                <mxCell id="199" value="" style="endArrow=none;html=1;rounded=0;dashed=1;dashPattern=1 2;strokeColor=#FFFFFF;strokeWidth=2;entryX=1;entryY=0.5;entryDx=0;entryDy=0;exitX=0;exitY=0.75;exitDx=0;exitDy=0;" edge="1" parent="1" source="23" target="187">
                    <mxGeometry relative="1" as="geometry">
                        <mxPoint x="740" y="280" as="sourcePoint"/>
                        <mxPoint x="900" y="280" as="targetPoint"/>
                    </mxGeometry>
                </mxCell>
                <mxCell id="201" value="N" style="resizable=0;html=1;align=right;verticalAlign=bottom;fontColor=#FFFFFF;" connectable="0" vertex="1" parent="1">
                    <mxGeometry x="740" y="250" as="geometry">
                        <mxPoint x="-6" y="8" as="offset"/>
                    </mxGeometry>
                </mxCell>
                <mxCell id="202" value="" style="endArrow=none;html=1;rounded=0;exitX=1;exitY=0;exitDx=0;exitDy=0;entryX=0;entryY=0.5;entryDx=0;entryDy=0;strokeWidth=2;fillColor=#f9f7ed;strokeColor=#FFFFFF;" edge="1" parent="1" source="4" target="2">
                    <mxGeometry relative="1" as="geometry">
                        <mxPoint x="110" y="230" as="sourcePoint"/>
                        <mxPoint x="175.12466094067258" y="276.6578643762689" as="targetPoint"/>
                    </mxGeometry>
                </mxCell>
                <mxCell id="203" value="React" style="shape=rhombus;perimeter=rhombusPerimeter;whiteSpace=wrap;html=1;align=center;" vertex="1" parent="1">
                    <mxGeometry x="600.01" y="50" width="120" height="60" as="geometry"/>
                </mxCell>
                <mxCell id="204" value="" style="endArrow=none;html=1;rounded=0;dashed=1;dashPattern=1 2;strokeColor=#FFFFFF;strokeWidth=2;entryX=0;entryY=0.5;entryDx=0;entryDy=0;exitX=1;exitY=0;exitDx=0;exitDy=0;" edge="1" parent="1" source="2" target="203">
                    <mxGeometry relative="1" as="geometry">
                        <mxPoint x="420" y="130" as="sourcePoint"/>
                        <mxPoint x="580" y="130" as="targetPoint"/>
                    </mxGeometry>
                </mxCell>
                <mxCell id="206" value="N" style="resizable=0;html=1;align=right;verticalAlign=bottom;fontColor=#FFFFFF;" connectable="0" vertex="1" parent="1">
                    <mxGeometry x="590.01" y="55" as="geometry">
                        <mxPoint x="4" y="23" as="offset"/>
                    </mxGeometry>
                </mxCell>
                <mxCell id="207" value="" style="endArrow=none;html=1;rounded=0;dashed=1;dashPattern=1 2;strokeColor=#FFFFFF;strokeWidth=2;entryX=1;entryY=0.5;entryDx=0;entryDy=0;exitX=0;exitY=0;exitDx=0;exitDy=0;" edge="1" parent="1" source="23" target="203">
                    <mxGeometry relative="1" as="geometry">
                        <mxPoint x="720" y="110" as="sourcePoint"/>
                        <mxPoint x="880" y="110" as="targetPoint"/>
                    </mxGeometry>
                </mxCell>
                <mxCell id="209" value="N" style="resizable=0;html=1;align=right;verticalAlign=bottom;fontColor=#FFFFFF;" connectable="0" vertex="1" parent="1">
                    <mxGeometry x="730.01" y="60" as="geometry">
                        <mxPoint x="3" y="18" as="offset"/>
                    </mxGeometry>
                </mxCell>
                <mxCell id="210" value="" style="endArrow=none;html=1;rounded=0;strokeColor=#FFFFFF;strokeWidth=2;entryX=0;entryY=0.5;entryDx=0;entryDy=0;exitX=0.5;exitY=0;exitDx=0;exitDy=0;" edge="1" parent="1" source="203" target="27">
                    <mxGeometry relative="1" as="geometry">
                        <mxPoint x="520" y="34.5" as="sourcePoint"/>
                        <mxPoint x="680" y="34.5" as="targetPoint"/>
                    </mxGeometry>
                </mxCell>
                <mxCell id="211" value="" style="endArrow=none;html=1;rounded=0;dashed=1;dashPattern=1 2;strokeColor=#FFFFFF;strokeWidth=2;entryX=0.5;entryY=0;entryDx=0;entryDy=0;exitX=1;exitY=1;exitDx=0;exitDy=0;" edge="1" parent="1" source="2" target="73">
                    <mxGeometry relative="1" as="geometry">
                        <mxPoint x="270" y="400" as="sourcePoint"/>
                        <mxPoint x="430" y="400" as="targetPoint"/>
                    </mxGeometry>
                </mxCell>
                <mxCell id="213" value="1" style="resizable=0;html=1;align=right;verticalAlign=bottom;fontColor=#FFFFFF;" connectable="0" vertex="1" parent="1">
                    <mxGeometry x="330" y="490" as="geometry">
                        <mxPoint x="32" y="14" as="offset"/>
                    </mxGeometry>
                </mxCell>
            </root>
        </mxGraphModel>
    </diagram>
</mxfile>